{"title":"Knight.And.Day.2010.TS.XVID.FEEL-FREE","uid":5656547,"size":1283160618,"categoryP":"video","categoryS":"movies","magnet":"?xt=urn:btih:32c500b926b1247601efca9c13afb67ee27edb66&amp;dn=Knight.And.Day.2010.TS.XVID.FEEL-FREE&amp;tr=udp%3A%2F%2Ftracker.openbittorrent.com%3A80&amp;tr=udp%3A%2F%2Fopen.demonii.com%3A1337&amp;tr=udp%3A%2F%2Ftracker.coppersurfer.tk%3A6969&amp;tr=udp%3A%2F%2Fexodus.desync.com%3A6969","seeders":0,"leechers":0,"uploader":".BONE.","files":8,"time":1277825726,"description":"Genre:Thriller / Comedie / Actiune\nLanguage:English\nIMDb:http://www.imdb.com/title/tt1013743/\nSource Video:Relizlab.Thanks\nSource Audio:FLAWL3SS/3 Leg Greg.Thanks\nEncoder: Tony2\n............................................\nGeneral\nComplete name : Knight.And.Day.2010.TS.XVID.FEEL-FREE\nFormat : AVI\nFormat/Info : Audio Video Interleave\nFile size : 1.19 GiB\nDuration : 1h 44mn\nOverall bit rate : 1 641 Kbps\n............................................\nVideo\nID : 0\nFormat : MPEG-4 Visual\nFormat profile : Simple@L3\nFormat settings, BVOP : Yes\nFormat settings, QPel : No\nFormat settings, GMC : No warppoints\nFormat settings, Matrix : Default (H.263)\nCodec ID : XVID\nCodec ID/Hint : XviD\nDuration : 1h 44mn\nBit rate : 1 500 Kbps\nWidth : 636 pixels\nHeight : 290 pixels\nDisplay aspect ratio : 2.2:1\nFrame rate : 29.970 fps\nResolution : 24 bits\nScan type : Progressive\nBits/(Pixel*Frame) : 0.271\nStream size : 1.09 GiB (91%)\n...........................................\nAudio\nID : 1\nFormat : MPEG Audio\nFormat version : Version 1\nFormat profile : Layer 3\nFormat settings, Mode : Joint stereo / MS Stereo\nCodec ID : 55\nCodec ID/Hint : MP3\nDuration : 1h 44mn\nBit rate mode : Constant\nBit rate : 128 Kbps\nChannel(s) : 2 channels\nSampling rate : 44.1 KHz\nResolution : 16 bits\nStream size : 95.4 MiB (8%)\nAlignment : Aligned on interleaves\nInterleave, duration : 26 ms (0.78 video frame)\nInterleave, preload duration : 8960 ms\nWriting library : LAME3.97\n..........................................\nPlot:\nJune Havens (Diaz) finds her everyday life tangled with that of a secret agent (Cruise) who has realized\n...................................................","torrent":{"xt":"urn:btih:32c500b926b1247601efca9c13afb67ee27edb66","amp;dn":"Knight.And.Day.2010.TS.XVID.FEEL-FREE","amp;tr":["udp%3A%2F%2Ftracker.openbittorrent.com%3A80","udp%3A%2F%2Fopen.demonii.com%3A1337","udp%3A%2F%2Ftracker.coppersurfer.tk%3A6969","udp%3A%2F%2Fexodus.desync.com%3A6969"],"infoHash":"32c500b926b1247601efca9c13afb67ee27edb66","infoHashBuffer":{"type":"Buffer","data":[50,197,0,185,38,177,36,118,1,239,202,156,19,175,182,126,226,126,219,102]},"announce":[],"urlList":[]}}